<?xml version="1.0" encoding="UTF-8"?>
<svg id="Layer_1" xmlns="http://www.w3.org/2000/svg" version="1.1" viewBox="0 0 305 46">
  <!-- Generator: Adobe Illustrator 29.7.1, SVG Export Plug-In . SVG Version: 2.1.1 Build 8)  -->
  <defs>
    <style>
      .st0 {
        fill: #838f8c;
      }
    </style>
  </defs>
  <g id="TM__x28_Avenir_LT_Std_14.96_pt_x29_">
    <g>
      <path class="st0" d="M260.96,21.84h-.4v-3.46h-1.26v-.36h2.96v.36h-1.26v3.46h-.03,0Z"/>
      <path class="st0" d="M264.7,21.15l1.3-3.09h.57v3.82h-.4v-3.31h0l-1.36,3.31h-.22l-1.36-3.31h0v3.31h-.4v-3.82h.57l1.3,3.09h.01Z"/>
    </g>
  </g>
  <g id="CN_Name_Horizontal">
    <g>
      <path class="st0" d="M81.64,25.26v-.03c0-3.75,2.81-6.84,6.81-6.84,2.45,0,3.93.86,5.19,2.05l-1.48,1.73c-1.04-.97-2.2-1.66-3.71-1.66-2.52,0-4.35,2.09-4.35,4.69v.03c0,2.59,1.83,4.69,4.35,4.69,1.62,0,2.67-.65,3.78-1.7l1.48,1.51c-1.36,1.44-2.88,2.34-5.36,2.34-3.82,0-6.7-3.03-6.7-6.81Z"/>
      <path class="st0" d="M94.79,28.97v-.03c0-2.17,1.7-3.21,4.1-3.21,1.11,0,1.91.18,2.7.44v-.25c0-1.41-.86-2.17-2.49-2.17-1.11,0-1.95.25-2.84.61l-.61-1.8c1.08-.5,2.17-.83,3.75-.83,1.48,0,2.59.4,3.31,1.11s1.08,1.76,1.08,3.09v5.9h-2.23v-1.26c-.69.83-1.73,1.44-3.24,1.44-1.87,0-3.53-1.08-3.53-3.06h0ZM101.63,28.25v-.69c-.57-.22-1.36-.4-2.27-.4-1.48,0-2.34.61-2.34,1.66v.03c0,.97.86,1.51,1.95,1.51,1.51,0,2.67-.86,2.67-2.12h-.01Z"/>
      <path class="st0" d="M106.03,21.84h2.27v1.51c.65-.91,1.51-1.73,3.03-1.73s2.45.69,2.99,1.76c.79-1.04,1.83-1.76,3.35-1.76,2.17,0,3.5,1.36,3.5,3.82v6.37h-2.27v-5.65c0-1.58-.72-2.45-2.02-2.45s-2.12.86-2.12,2.49v5.62h-2.27v-5.7c0-1.55-.76-2.42-2.02-2.42s-2.12.94-2.12,2.49v5.62h-2.27v-9.97h-.05Z"/>
      <path class="st0" d="M125.8,30.26v1.55h-2.27v-13.8h2.27v5.48c.72-1.04,1.76-1.87,3.38-1.87,2.34,0,4.64,1.83,4.64,5.19v.03c0,3.31-2.27,5.19-4.64,5.19-1.66,0-2.7-.83-3.38-1.76h0ZM131.48,26.84v-.03c0-1.95-1.3-3.21-2.84-3.21s-2.92,1.3-2.92,3.21v.03c0,1.91,1.36,3.21,2.92,3.21s2.84-1.23,2.84-3.21Z"/>
      <path class="st0" d="M135.73,18.16h2.45v2.17h-2.45v-2.17ZM135.8,21.84h2.3v9.97h-2.3v-9.97Z"/>
      <path class="st0" d="M140.49,28.21v-6.34h2.27v5.65c0,1.55.79,2.42,2.12,2.42s2.23-.91,2.23-2.45v-5.62h2.3v9.97h-2.3v-1.55c-.65.94-1.58,1.76-3.13,1.76-2.2-.03-3.5-1.55-3.5-3.85Z"/>
      <path class="st0" d="M151.84,21.84h2.27v1.51c.65-.91,1.51-1.73,3.03-1.73s2.45.69,2.99,1.76c.79-1.04,1.83-1.76,3.35-1.76,2.17,0,3.5,1.36,3.5,3.82v6.37h-2.27v-5.65c0-1.58-.72-2.45-2.02-2.45s-2.12.86-2.12,2.49v5.62h-2.27v-5.7c0-1.55-.76-2.42-2.02-2.42s-2.12.94-2.12,2.49v5.62h-2.27v-9.97h-.05Z"/>
      <path class="st0" d="M174.73,18.6h2.17l7.09,9.15v-9.15h2.3v13.21h-1.95l-7.31-9.4v9.4h-2.27v-13.21s-.03,0-.03,0Z"/>
      <path class="st0" d="M188.35,26.87v-.03c0-2.84,2.02-5.19,4.86-5.19,3.17,0,4.79,2.49,4.79,5.36,0,.22-.03.44-.03.65h-7.35c.25,1.62,1.41,2.52,2.88,2.52,1.11,0,1.91-.44,2.7-1.19l1.33,1.19c-.94,1.11-2.23,1.87-4.07,1.87-2.88,0-5.11-2.09-5.11-5.19h0ZM195.74,26.12c-.15-1.48-1.01-2.62-2.52-2.62-1.41,0-2.37,1.08-2.59,2.62h5.11,0Z"/>
      <path class="st0" d="M200.31,29.07v-5.26h-1.26v-1.98h1.26v-2.74h2.3v2.74h2.67v1.98h-2.67v4.89c0,.91.47,1.26,1.23,1.26.5,0,.97-.1,1.41-.32v1.87c-.57.32-1.19.5-2.05.5-1.7-.03-2.88-.76-2.88-2.96h-.01Z"/>
      <path class="st0" d="M206.28,21.84h2.34l2.02,6.84,2.2-6.88h1.98l2.2,6.88,2.05-6.84h2.3l-3.28,10.05h-2.05l-2.23-6.81-2.23,6.81h-2.05l-3.24-10.05h0Z"/>
      <path class="st0" d="M221.85,26.87v-.03c0-2.84,2.27-5.23,5.33-5.23s5.29,2.34,5.29,5.19v.03c0,2.84-2.27,5.19-5.36,5.19-2.99.03-5.26-2.3-5.26-5.15h0ZM230.2,26.87v-.03c0-1.76-1.26-3.21-3.06-3.21s-2.99,1.44-2.99,3.17v.03c0,1.73,1.26,3.21,3.03,3.21,1.87,0,3.03-1.44,3.03-3.17Z"/>
      <path class="st0" d="M234.34,21.84h2.3v2.23c.61-1.48,1.76-2.52,3.53-2.45v2.42h-.15c-2.02,0-3.38,1.3-3.38,3.97v3.78h-2.3v-9.94h0Z"/>
      <path class="st0" d="M241.65,18.01h2.27v8.25l4.14-4.44h2.77l-3.97,4.07,4.1,5.9h-2.7l-2.96-4.32-1.41,1.48v2.84h-2.27v-13.8h.02Z"/>
      <path class="st0" d="M251.35,30.52l1.01-1.55c1.08.83,2.23,1.23,3.28,1.23.97,0,1.55-.44,1.55-1.08v-.03c0-.79-1.04-1.04-2.23-1.41-1.48-.44-3.13-1.01-3.13-2.92v-.03c0-1.87,1.58-3.03,3.56-3.03,1.26,0,2.59.44,3.68,1.11l-.91,1.62c-.97-.57-1.98-.94-2.81-.94-.91,0-1.41.44-1.41.97v.03c0,.72,1.08,1.04,2.23,1.41,1.44.47,3.09,1.11,3.09,2.92v.03c0,2.09-1.62,3.13-3.71,3.13-1.41.03-2.96-.47-4.22-1.48h.01Z"/>
    </g>
  </g>
  <g id="CN_Icon_Horizontal">
    <path class="st0" d="M61.12,14.09c-2.3,1.3-4,3.43-4.69,5.95-.72,2.56-.4,5.23.91,7.53,1.76,3.13,5.08,5.08,8.68,5.08,1.19,0,2.34-.22,3.43-.61,1.95-2.77,3.09-6.15,3.09-9.8,0-3.06-.79-5.95-2.23-8.39-1.33-.65-2.81-1.01-4.32-1.01-1.73,0-3.38.44-4.86,1.26h0Z"/>
    <path class="st0" d="M47.68,25.26c.91,1.62,2.05,3.06,3.43,4.29-.61-.72-1.16-1.51-1.62-2.37-4.29-7.67-1.8-17.33,5.55-21.97-2.09.03-4.1.47-5.95,1.23-4.07,5.29-4.86,12.68-1.41,18.84h0Z"/>
    <path class="st0" d="M45.8,26.3c-3.17-5.65-3.17-12.29-.54-17.72-4.14,3.09-6.84,8.07-6.84,13.65,0,9.4,7.63,17.03,17.03,17.03,3.78,0,7.28-1.23,10.09-3.31-.94.15-1.91.22-2.88.22-6.99,0-13.43-3.78-16.86-9.87Z"/>
    <path class="st0" d="M59.1,10.53c-2.81,1.55-4.82,4.14-5.7,7.21-.86,3.09-.5,6.34,1.08,9.11.15.25.29.47.44.72-1.11-2.56-1.33-5.4-.57-8.14.86-3.09,2.92-5.7,5.73-7.24,1.8-1.01,3.82-1.55,5.87-1.55.76,0,1.51.07,2.23.22-.57-.65-1.19-1.26-1.87-1.8-.44-.03-.91-.07-1.36-.07-2.02.03-4.07.54-5.83,1.55h-.01Z"/>
    <path class="st0" d="M51.35,26.12c.4.72.86,1.41,1.36,2.02-.03-.07-.1-.15-.15-.22-1.83-3.31-2.3-7.13-1.26-10.77,1.04-3.63,3.43-6.66,6.7-8.5,1.55-.86,3.28-1.44,5.04-1.7-1.23-.61-2.56-1.08-3.97-1.41-.76.29-1.51.61-2.23,1.01-6.88,3.89-9.36,12.64-5.51,19.55v.02Z"/>
  </g>
</svg>