<?xml version="1.0" encoding="UTF-8"?>
<svg id="Layer_1" xmlns="http://www.w3.org/2000/svg" version="1.1" viewBox="0 0 305 46">
  <!-- Generator: Adobe Illustrator 29.7.1, SVG Export Plug-In . SVG Version: 2.1.1 Build 8)  -->
  <defs>
    <style>
      .st0 {
        fill: #838f8c;
      }
    </style>
  </defs>
  <g id="g3">
    <path id="path5" class="st0" d="M116.51,20.1h8.3c.58,0,.69.59.24,1.32l-1.67,2.75c-.45.72-1.28,1.32-1.86,1.32h-8.3c-.58,0-.69-.59-.24-1.32l1.67-2.75c.45-.72,1.28-1.32,1.86-1.32"/>
    <path id="path7" class="st0" d="M156.19,7.21c3.05-.28,6.67,2.12,4.88,5.25-1.71,2.84-7.89,3.57-9.75,3.4-.59-.06-1.56-.43-1.54-1.37.02-.67.39-3.01,1.67-4.85,1.34-1.8,3.31-2.34,4.73-2.43"/>
  </g>
  <path id="path9" class="st0" d="M175.21,13.28c.95-.43,1.04.61,1,.93v2.41c0,.46.39.24.59.17,2.86-1.21,5.76-3.01,9.43-2.92,3.27.07,4.25,2.66,4.23,5.63v12.64c0,1.11.09,1.37.61,1.8.17.09,1.04.17,1.37.17.35,0,.35.26.26.52l-.78,1.99c-.17.33-.52.43-.78.43h-7.43c-2.58-.09-3.36-2.02-3.32-3.01v-12.03c0-2.47-4.03-2.66-4.03.67v10.14c.04.48-.11,1.11,1.19,1.21.85,0,1.47-.09,1.04.95l-.63,1.6c-.15.3-.5.48-.84.46h-12.27c-.26,0-.46-.3-.43-.52l.87-2.25c.04-.09.13-.26.24-.26.41-.02.69-.22.76-1.37v-13.18c0-1.08-.98-.95-1.73-.95-.33,0-.52-.09-.43-.52l.69-1.47c.09-.35.26-.48.52-.52,4.05-.61,6.39-.89,9.84-2.71"/>
  <path id="path11" class="st0" d="M205.17,7.73c.71-.11,1.11.32,1.11,1.1v12.63c.09.69.59.22.74.02l4.36-5.53c.46-.58,1.58-.69,2.27-.69h9.51c.17,0,.26.2.09.43l-1.21,1.63c-.11.15-.2.33-.78.33h-.46c-.43.02-.52.17-.69.26l-4.88,5.48c-1.02,1.23-.78,1.75.13,2.62l6.7,6.87c1.49,1.04,2.84,1.11,4.38,1.21.41.02.32.35.17.52l-1.73,1.99c-.17.26-.93.43-1.36.43h-6.65c-.85,0-2.4-.26-3.6-1.04-2.41-1.99-3.94-4.49-6.29-6.72-.41-.39-.74-.2-.74.13v2.88c0,1.3.54,1.63,2.43,1.73.72.04.52.43.35.85l-.63,1.63c-.19.39-.43.52-.76.52h-13.74c-.43,0-.71-.13-.61-.39l.76-2.02c.17-.39.28-.48.85-.52.95-.06,1.3-.37,1.32-1.78V13.71c0-.63-.15-.87-.59-.82l-1.75.24c-.52.07-.61-.32-.41-.69l1.08-1.8c.2-.35.58-.39.98-.46,3.51-.58,7.06-1.6,9.23-2.41.13.04.24-.02.41-.04"/>
  <g id="g13">
    <path id="path15" class="st0" d="M160.83,15.18c.43-.17.95.17.85,1.11v16.36c.22,1.15.59,1.43,1.62,1.54,0,0,.71.02.52.52l-.67,1.73c-.26.52-.43.61-1.04.61h-12.79c-.33-.02-.46-.24-.35-.61l.63-1.63c.11-.22.17-.45.59-.52,1.3-.35,1.37-.52,1.37-2.25v-9.79c0-1.63-.26-1.56-2.15-1.37-.33-.09-.32-.41-.26-.52l.95-1.8c.26-.52.59-.52.59-.52,3.64-.28,7.26-1.19,10.14-2.86"/>
    <path id="path17" class="st0" d="M96.25,37.03c2.79.04,6.15.19,9.27-2.25,2.23-1.47,4.9-7.41,5.87-9.86.48-1.28.61-2.97,0-4.25-1.69-3.83-4.14-8.1-5.76-9.82-2.32-2.14-4.49-2.32-8.11-2.32h-15.45c-.65,0-1.37.17-1.63.61l-1.11,2.06c-.17.85.85.95.85.95h1.58c.43,0,.52.33.52.69v19.13c0,.85-.97,1.37-1.75,1.54-.35.09-.85.19-1.11.61l-1.11,2.15c-.17.43.17.78.52.78,6.07,0,11.35.02,17.44-.02M92.34,33.49V12.93c0-.52.09-.78.59-.85h1.5c.54,0,1.32-.11,1.8.74l5.18,9.04c.43.95.3,1.34,0,1.99l-5.25,8.88c-.63.87-.93.71-1.73.76-.02,0,.02,0,0,0h-2.1Z"/>
  </g>
  <path id="path19" class="st0" d="M140.35,8.74c.67,0,.91.39.78.65l-1.37,2.51s-.17.52-1.37.52h-.13c-.78,0-1.39,0-1.47,1.56v18.16c0,.78.33,1.43,1.28,1.47h1.88c3.06-.04,2.99-3.19,3.68-5.94.17-.43.26-.69.78-.95l2.71-.95c.35,0,.69,0,.78.59v9.14c.09.85-.69,1.63-1.73,1.54h-23.32c-.85,0-1.04-.26-.85-.78l.85-1.89s.26-.52,1.04-.52c1.73-.09,2.8-.11,2.79-2.75V14.12c0-1.11-.26-1.8-1.39-1.8h-1.32c-.85,0-1.32-.3-1.11-.78l1.21-2.25c.28-.5.52-.58.95-.58h15.36"/>
</svg>