<?xml version="1.0" encoding="UTF-8"?>
<svg id="Layer_1" xmlns="http://www.w3.org/2000/svg" version="1.1" viewBox="0 0 305 46">
  <!-- Generator: Adobe Illustrator 29.7.1, SVG Export Plug-In . SVG Version: 2.1.1 Build 8)  -->
  <defs>
    <style>
      .st0 {
        fill: #838f8c;
      }
    </style>
  </defs>
  <path class="st0" d="M178.02,15.55v2.06c0,.39-.31.7-.7.68-.59-.02-1.4-.06-1.91-.06-2.81,0-4.35,1.67-4.35,4.7v7.53c0,.37-.31.68-.68.68h-2.46c-.37,0-.68-.31-.68-.68v-15.11c0-.37.31-.68.68-.68h2.35c.37,0,.68.29.68.68v.95c1.12-1.16,2.9-1.78,5.12-1.78.37,0,.83.06,1.16.09.46.06.81.46.81.92l-.02.02ZM152.86,21.93c-.13-.17-.11-.42.04-.57l6.04-5.95c.28-.28.07-.73-.29-.73h-3.53c-.17,0-.33.06-.46.18l-6.81,6.24c-.28.26-.72.06-.72-.31v-5.44c0-.37-.31-.68-.68-.68h-2.46c-.37,0-.68.29-.68.68v15.11c0,.37.31.68.68.68h2.46c.37,0,.68-.31.68-.68v-3.51c-.02-.18.06-.37.2-.5l2.11-1.97c.18-.17.46-.15.62.04l5.12,6.35c.13.17.33.26.53.26h3.53c.35,0,.55-.4.33-.68l-6.72-8.54h0ZM132.81,14.69h-2.46c-.37,0-.68.29-.68.68v15.11c0,.37.31.68.68.68h2.46c.37,0,.68-.31.68-.68v-15.11c0-.37-.31-.68-.68-.68ZM220.88,14.69h-14.84c-.37,0-.68.31-.68.68v2.2c0,.37.31.68.68.68h5.05c.24,0,.42.18.42.42v11.81c0,.37.31.68.68.68h2.55c.37,0,.68-.31.68-.68v-11.81c0-.24.18-.42.42-.42h5.05c.37,0,.68-.31.68-.68v-2.2c0-.37-.31-.68-.68-.68h-.02ZM200.22,22.92c0,4.87-3.58,8.41-8.52,8.41s-8.56-3.54-8.56-8.41,3.6-8.37,8.56-8.37,8.52,3.53,8.52,8.37ZM196.39,22.92c0-2.94-1.87-4.9-4.68-4.9s-4.7,2.02-4.7,4.9,1.93,4.94,4.7,4.94,4.68-2.04,4.68-4.94ZM232.34,14.69h-2.46c-.37,0-.68.31-.68.68v15.11c0,.37.31.68.68.68h2.46c.37,0,.68-.31.68-.68v-15.11c0-.37-.31-.68-.68-.68ZM112.97,14.54c-2.22,0-4.21.77-5.56,2.11-.18.18-.46.17-.62-.02-1.16-1.36-2.96-2.09-5.11-2.09-1.97,0-3.65.59-4.83,1.67v-.84c0-.37-.31-.68-.68-.68h-2.35c-.37,0-.68.29-.68.68v15.11c0,.37.31.68.68.68h2.46c.37,0,.68-.31.68-.68v-7.79c0-2.94,1.51-4.63,4.13-4.63,2.31,0,3.49,1.34,3.49,4v8.39c0,.37.31.68.68.68h2.46c.37,0,.68-.31.68-.68v-7.79c0-2.94,1.51-4.63,4.13-4.63,2.31,0,3.49,1.34,3.49,4v8.39c0,.37.31.68.68.68h2.46c.37,0,.68-.31.68-.68v-8.72c0-4.59-2.5-7.22-6.83-7.22l-.04.04ZM259.16,30.47l-6.74-8.54c-.13-.17-.11-.42.04-.57l6.04-5.95c.28-.26.07-.73-.29-.73h-3.53c-.17,0-.33.06-.46.18l-6.81,6.24c-.28.26-.72.06-.72-.31v-5.44c0-.37-.31-.68-.68-.68h-2.46c-.37,0-.68.31-.68.68v15.11c0,.37.31.68.68.68h2.46c.37,0,.68-.31.68-.68v-3.51c-.02-.18.06-.37.2-.5l2.13-1.97c.18-.17.46-.15.62.04l5.12,6.35c.13.17.33.26.53.26h3.53c.35,0,.55-.4.33-.68h0ZM79.37,13.99c-.04-.11-.09-.2-.15-.29s-.11-.18-.18-.26c-.37-.46-.97-.9-1.74-1.32l-6.24-3.42-6.24-3.42c-.77-.42-1.49-.7-2.09-.77-.11,0-.22-.02-.33-.02-.66,0-1.51.29-2.42.81l-6.24,3.42-6.24,3.42c-.77.42-1.38.86-1.74,1.32-.07.09-.13.18-.18.26-.06.09-.09.18-.15.29-.24.53-.33,1.25-.33,2.11v13.66c0,1.01.15,1.85.48,2.39s1.01,1.08,1.95,1.6l6.24,3.42,6.24,3.42c.77.42,1.49.7,2.09.77.11,0,.22.02.33.02s.22,0,.33-.02c.61-.07,1.32-.35,2.09-.77l12.47-6.83c.92-.51,1.62-1.05,1.95-1.6.06-.09.09-.18.15-.29.24-.53.33-1.25.33-2.11v-13.66c0-.84-.11-1.56-.33-2.11h-.02ZM55.05,30.04c0,.31-.33.51-.61.37l-2.22-1.23c-.53-.29-.84-.84-.84-1.43v-6.61c0-.31.33-.51.61-.37l2.66,1.45c.26.15.42.42.42.72v7.09h0l-.02.02ZM73.42,27.73c0,.61-.33,1.16-.84,1.43l-2.22,1.21c-.28.15-.61-.06-.61-.37v-8.76c0-.31-.33-.51-.61-.37l-4.02,2.2c-.53.29-.84.84-.84,1.43v8.69c0,.29-.17.57-.42.72l-.62.35c-.5.28-1.08.28-1.58,0l-.62-.35c-.26-.15-.42-.42-.42-.72v-8.69c0-.61-.33-1.16-.84-1.43l-8.34-4.57v-.44c0-.61.33-1.16.84-1.43l.92-.51c.5-.28,1.08-.28,1.58,0l6.89,3.78c.5.28,1.08.28,1.58,0l3.18-1.74c.28-.17.28-.57,0-.72l-7.14-3.91c-.28-.17-.28-.57,0-.72l2.39-1.3c.5-.28,1.08-.28,1.58,0l9.38,5.14c.53.29.84.84.84,1.43v9.6h0l-.04.04Z"/>
</svg>