<?xml version="1.0" encoding="UTF-8"?>
<svg id="Layer_1" xmlns="http://www.w3.org/2000/svg" version="1.1" viewBox="0 0 305 46">
  <!-- Generator: Adobe Illustrator 29.7.1, SVG Export Plug-In . SVG Version: 2.1.1 Build 8)  -->
  <defs>
    <style>
      .st0 {
        fill: #838f8c;
      }
    </style>
  </defs>
  <path class="st0" d="M99.1,30.24c0,1.06.89,2.11,2.08,2.11h8.04v8.13c0,1.06.89,2.11,2.08,2.11h6.87v-19.32h-19.09v6.96h.01ZM124.58,1.93c-8.39,0-15.11,6.76-15.11,15.1v3.22h8.43v-3.22c0-3.62,2.93-6.55,6.68-6.55s6.27,2.6,6.27,6.47-2.78,6.64-6.47,6.64h-3.17v8.54h3.17c8.24,0,14.91-6.79,14.91-15.18s-6.23-15-14.72-15"/>
  <path class="st0" d="M205.9,32.37l-5.26-6.02,4.7-5.41h-2.93l-4.22,5.04v-10.21l-2.49,1.25v14.69c0,.37.29.65.6.65h1.89v-5.7l4.66,5.7h3.05ZM187.89,20.61c-2.02,0-4.1,1.06-5.15,2.6v8.54c0,.33.29.61.6.61h1.89v-8.13c.6-.78,1.57-1.25,2.66-1.25,1.73,0,2.97,1.38,2.97,3.22v6.19h2.45v-6.27c0-3.13-2.33-5.49-5.42-5.49M178.96,15.53c-.93,0-1.69.74-1.69,1.66,0,.45.16.82.44,1.1h2.49c.29-.29.44-.65.44-1.1,0-.94-.76-1.66-1.69-1.66M180.22,32.37v-11.43h-2.49v10.82c0,.33.29.61.6.61,0,0,1.89,0,1.89,0ZM172.7,31.76c0,.33.29.61.6.61h1.89V15.77l-2.49,1.25v14.73ZM167.11,27.89h3.38v-2.52h-4.58l1.21,2.52h-.01ZM158.31,20.73c-2.13,0-4.37,1.14-5.51,2.81v12.52c0,.33.29.61.6.61h1.89v-12.13c.6-.9,1.73-1.47,2.97-1.47,1.93,0,3.34,1.47,3.34,3.54s-1.4,3.58-3.34,3.58h-1.77v2.15h1.81c3.34,0,5.79-2.4,5.79-5.74s-2.49-5.9-5.79-5.9M147.13,28.54v-5.37h3.22v-2.23h-3.22v-3.46l-2.49,1.25v10.33c0,2.11,1.24,3.3,3.46,3.3h3.22v-2.15h-2.58c-1.21,0-1.61-.45-1.61-1.68"/>
</svg>