<?xml version="1.0" encoding="UTF-8"?>
<svg id="Layer_1" xmlns="http://www.w3.org/2000/svg" version="1.1" viewBox="0 0 305 46">
  <!-- Generator: Adobe Illustrator 29.7.1, SVG Export Plug-In . SVG Version: 2.1.1 Build 8)  -->
  <defs>
    <style>
      .st0 {
        fill: #838f8c;
      }
    </style>
  </defs>
  <path id="path268" class="st0" d="M138.08,30.06h-3.65v14.47h3.65s0-14.47,0-14.47Z"/>
  <g id="use360">
    <path id="path284" class="st0" d="M167.51,34.2c-.15-.07-1.33-.77-3.06-.77-2.36,0-4,1.65-4,3.86s1.56,3.86,4,3.86c1.72,0,2.9-.69,3.06-.77v3.88c-.45.13-1.69.51-3.32.51-4.1,0-7.7-2.83-7.7-7.5,0-4.32,3.27-7.48,7.7-7.48,1.72,0,2.99.42,3.32.52v3.88Z"/>
  </g>
  <path id="path2841" class="st0" d="M129.42,34.2c-.15-.07-1.33-.77-3.06-.77-2.36,0-4,1.65-4,3.86s1.56,3.86,4,3.86c1.72,0,2.9-.69,3.06-.77v3.88c-.45.13-1.69.51-3.32.51-4.1,0-7.7-2.83-7.7-7.5,0-4.32,3.27-7.48,7.7-7.48,1.72,0,2.99.42,3.32.52v3.88Z"/>
  <path id="path288" class="st0" d="M178.98,33.48c-2.16,0-3.78,1.71-3.78,3.81s1.6,3.81,3.78,3.81,3.78-1.71,3.78-3.81-1.62-3.81-3.78-3.81M186.62,37.27c0,4.14-3.19,7.5-7.64,7.5s-7.64-3.35-7.64-7.5,3.19-7.48,7.64-7.48,7.64,3.35,7.64,7.48"/>
  <path id="path292" class="st0" d="M151.92,33.34s-1.59-.44-2.86-.44c-1.46,0-2.26.5-2.26,1.18,0,.87,1.08,1.18,1.68,1.37l1.01.32c2.36.76,3.44,2.38,3.44,4.14,0,3.63-3.19,4.86-5.99,4.86-1.94,0-3.76-.35-3.94-.39v-3.32c.32.09,1.85.54,3.44.54,1.82,0,2.65-.52,2.65-1.36,0-.73-.73-1.15-1.63-1.44-.22-.07-.55-.17-.77-.25-2.03-.64-3.73-1.84-3.73-4.23,0-2.7,2.03-4.52,5.4-4.52,1.78,0,3.44.44,3.56.47v3.09h.01Z"/>
  <g id="g383">
    <path id="path296" class="st0" d="M114.51,14.51c0-.99-.82-1.81-1.81-1.81s-1.81.8-1.81,1.81v3.79c0,1.01.82,1.81,1.81,1.81s1.81-.8,1.81-1.81v-3.79Z"/>
    <path id="path300" class="st0" d="M124.46,9.52c0-.99-.82-1.81-1.81-1.81s-1.81.82-1.81,1.81v8.78c0,1.01.82,1.81,1.81,1.81s1.81-.8,1.81-1.81v-8.78Z"/>
    <path id="path304" class="st0" d="M134.42,2.71c0-.99-.82-1.81-1.81-1.81s-1.81.8-1.81,1.81v19.2c0,1.01.82,1.81,1.81,1.81s1.81-.8,1.81-1.81V2.71Z"/>
    <path id="path308" class="st0" d="M144.36,9.52c0-.99-.82-1.81-1.81-1.81s-1.81.82-1.81,1.81v8.78c0,1.01.82,1.81,1.81,1.81s1.81-.8,1.81-1.81v-8.78Z"/>
    <path id="path312" class="st0" d="M154.31,14.51c0-.99-.8-1.81-1.79-1.81s-1.81.8-1.81,1.81v3.79c0,1.01.82,1.81,1.81,1.81s1.79-.8,1.79-1.81v-3.79Z"/>
  </g>
  <g id="use385">
    <g id="g3831">
      <path id="path2961" class="st0" d="M154.31,14.51c0-.99-.82-1.81-1.81-1.81s-1.81.8-1.81,1.81v3.79c0,1.01.82,1.81,1.81,1.81s1.81-.8,1.81-1.81v-3.79Z"/>
      <path id="path3001" class="st0" d="M164.27,9.52c0-.99-.82-1.81-1.81-1.81s-1.81.82-1.81,1.81v8.78c0,1.01.82,1.81,1.81,1.81s1.81-.8,1.81-1.81v-8.78Z"/>
      <path id="path3041" class="st0" d="M174.21,2.71c0-.99-.82-1.81-1.81-1.81s-1.81.8-1.81,1.81v19.2c0,1.01.82,1.81,1.81,1.81s1.81-.8,1.81-1.81V2.71Z"/>
      <path id="path3081" class="st0" d="M184.16,9.52c0-.99-.82-1.81-1.81-1.81s-1.81.82-1.81,1.81v8.78c0,1.01.82,1.81,1.81,1.81s1.81-.8,1.81-1.81v-8.78Z"/>
      <path id="path3121" class="st0" d="M194.1,14.51c0-.99-.8-1.81-1.79-1.81s-1.81.8-1.81,1.81v3.79c0,1.01.82,1.81,1.81,1.81s1.79-.8,1.79-1.81v-3.79Z"/>
    </g>
  </g>
  <path id="path332" class="st0" d="M192.02,42.61v.23h-.64v1.68h-.26v-1.68h-.64v-.23h1.56-.01Z"/>
  <path id="path336" class="st0" d="M192.16,42.61h.41l.57,1.56h0l.55-1.56h.41v1.91h-.28v-1.56h0l-.58,1.56h-.25l-.57-1.56h0v1.56h-.26v-1.91h0Z"/>
</svg>