<?xml version="1.0" encoding="UTF-8"?>
<svg id="Layer_1" xmlns="http://www.w3.org/2000/svg" version="1.1" viewBox="0 0 305 46">
  <!-- Generator: Adobe Illustrator 29.7.1, SVG Export Plug-In . SVG Version: 2.1.1 Build 8)  -->
  <defs>
    <style>
      .st0 {
        fill: #838f8c;
      }
    </style>
  </defs>
  <path class="st0" d="M134.45,17.08h-3.13v14.94h3.13v-6.06h6.86v6.06h3.03v-14.94h-3.03v6.06h-6.86v-6.06ZM158.47,25.66c0,2.42-1.21,3.73-3.43,3.73s-3.43-1.31-3.43-3.84v-8.48h-3.03v8.58c0,4.24,2.32,6.66,6.46,6.66s6.46-2.42,6.46-6.76v-8.48h-3.03v8.58ZM187.74,17.08l-3.43,10.29-3.33-10.29h-3.23l5.25,14.94h2.52l3.43-9.79,3.33,9.79h2.62l5.15-14.94h-3.13l-3.33,10.29-3.43-10.29h-2.42ZM211.05,22.83h-5.55v-3.03h8.07v-2.72h-11.1v14.94h11.4v-2.72h-8.38v-3.73h5.55v-2.72ZM217.51,17.08h3.03v14.94h-3.03v-14.94ZM174.32,28.89l1.31,3.13h3.23l-6.56-14.94-.1-.1h-2.62l-6.56,15.04h3.13l1.31-2.93.1-.2h6.76ZM170.89,20.81l2.12,5.05.1.3h-4.64l.1-.3,2.32-5.05Z"/>
  <path class="st0" d="M101.45,30.5s.1-.1,0-.1c-4.64-10.09-11-17.86-11-17.86,0,0-3.43,3.23-3.23,6.56.1,2.52,2.02,3.94,2.02,3.94,3.03,2.93,10.29,6.66,12.01,7.47h.2M100.24,33.03c0-.1-.2-.1-.2-.1l-12.11.4c1.31,2.32,3.53,4.14,5.85,3.63,1.61-.4,5.25-2.93,6.36-3.73.2-.2.1-.2.1-.2M100.44,31.92c.1-.1,0-.2,0-.2-5.35-3.63-15.64-9.08-15.64-9.08-.91,2.93.3,5.25.3,5.25,1.31,2.83,3.84,3.63,3.84,3.63,1.11.5,2.32.5,2.32.5h9.08c.1,0,.1-.1.1-.1M101.25,7.29c-.5,0-1.92.4-1.92.4-3.23.81-3.94,3.73-3.94,3.73-.61,1.82,0,3.84,0,3.84,1.11,4.74,6.36,12.62,7.47,14.23l.1.1c.1,0,.1-.1.1-.1,1.82-17.66-1.82-22.2-1.82-22.2M105.29,29.49c.1,0,.2-.1.2-.1,1.21-1.72,6.36-9.49,7.47-14.23,0,0,.61-2.32,0-3.84,0,0-.81-2.93-4.04-3.73,0,0-.91-.2-1.92-.4,0,0-3.63,4.64-1.82,22.1,0,.2.1.2.1.2M108.11,32.93s-.1,0-.1.1v.2c1.21.81,4.64,3.33,6.36,3.73,0,0,3.13,1.11,5.85-3.63l-12.11-.4ZM123.55,22.53s-10.29,5.55-15.64,9.18c0,0-.1.1-.1.2,0,0,0,.1.1.1h9.28s.91,0,2.12-.5c0,0,2.52-.81,3.94-3.73,0-.1,1.21-2.42.3-5.25M106.9,30.5s.1.1.2,0c1.72-.91,8.98-4.54,12.01-7.47,0,0,1.92-1.51,2.02-3.94.2-3.43-3.23-6.56-3.23-6.56,0,0-6.36,7.57-11,17.76,0,0-.1.1,0,.2"/>
</svg>