<?xml version="1.0" encoding="UTF-8"?>
<svg id="Layer_1" xmlns="http://www.w3.org/2000/svg" version="1.1" viewBox="0 0 305 46">
  <!-- Generator: Adobe Illustrator 29.7.1, SVG Export Plug-In . SVG Version: 2.1.1 Build 8)  -->
  <defs>
    <style>
      .st0, .st1 {
        fill: #838f8c;
      }

      .st1 {
        fill-rule: evenodd;
      }
    </style>
  </defs>
  <path class="st1" d="M150.82,30.84V10.02h2.84v20.82h-2.84Z"/>
  <path class="st0" d="M106.19,15.91c12.86-4.33,25.1-5.63,30.99-6.02,2.32-.15,3.66-.17,3.66-.17-.48-.1-1.01-.2-1.58-.3-2.14-.35-4.88-.56-7.99-.6h-.04c-.35,0-.71,0-1.07,0-7.41,0-16.65.97-24.77,3.51l-.74,4.12c.5-.18,1.01-.35,1.51-.52l.03-.02Z"/>
  <path class="st0" d="M84.29,14.83c0-.69-.11-1.31-.31-1.85-.8-2.19-3.08-3.27-6.03-3.27h-12.9s-4.95,0-4.95,0l-1.19,3.1h15.63s2.84-.07,3.66,1.49h0s0,.03,0,.03c.13.25.21.55.21.9,0,3.53-10.55,6.61-10.55,6.61l6.65,7.36h7.54c-3.22-4.14-7.36-7.37-7.36-7.37,5.23-.2,9.6-2.87,9.6-7Z"/>
  <path class="st0" d="M68.1,14.8h-6.11l-4.67,14.37h6.11l4.67-14.37Z"/>
  <path class="st0" d="M120.62,15.19c1.53-.22,3.05-.41,4.56-.58.09,0,.18-.02.27-.03h.03s-3.11,14.62-3.11,14.62h-4.7l2.96-14.01Z"/>
  <path class="st0" d="M112.49,16.51c-1.07,5.37-2.06,9.71-2.95,12.97-.41,1.47-.9,2.51-1.47,3.13-.67.75-1.76,1.32-3.3,1.73h-.01s0,.02,0,.02h0s0,.02,0,.02l-.59,2.8c1.49-.13,5.41-.73,7.8-3.33,1.29-1.4,2.14-3.46,2.56-5.17l2.9-13.01c-1.68.26-3.32.55-4.92.84Z"/>
  <path class="st0" d="M101.97,29.22l2.4-11.11c1.48-.31,3.12-.65,4.87-.99l-2.56,12.1h-4.7Z"/>
  <path class="st0" d="M97.14,14.13s-.96,5.9-1.83,9.22c-.12.43-.23.83-.39,1.18v.02s-.02.02-.02.02c-.05.11-.11.22-.17.32-.45.76-1.22,1.26-2.81,1.42-2.03.19-3.01-.38-2.7-1.94l2.26-10.24h-5.01l-2.42,11.66c-.22,1.45.4,2.47,1.67,2.99.65.28,1.48.42,2.46.42,7.72,0,10.4-.19,11.46-3.74.55-1.87,2.4-11.33,2.4-11.33h-4.9Z"/>
  <path class="st1" d="M141.74,16.06c-.87-1.23-2.57-2.08-4.93-2.08-.25,0-.51,0-.78.03-3.05.23-5.1,1.02-7.13,2.67-1.97,1.61-2.97,3.48-3.34,5.29-.08.37-.13.73-.14,1.09-.12,1.82.79,4.89,4.86,5.87,3.79.92,8.35-.91,9.5-1.45l.84-3.64c-1.12.65-9.31,5.24-9.98.07.07-.01,6.52-1.26,7.62-1.5,1.23-.27,3.92-1.25,4.15-3.86.09-.91-.15-1.77-.66-2.5ZM134.81,21.75c-4.05.89-4.15.89-4.15.89,0,0,.75-4.05,5.25-5.47,2.85-.89,2.94,3.68-1.1,4.58Z"/>
  <path class="st0" d="M195.88,21.31h-8.67v2.74h8.67v-2.74Z"/>
  <path class="st0" d="M229.85,21.31h-8.67v2.74h8.67v-2.74Z"/>
  <path class="st0" d="M247.36,21.31h-8.67v2.74h8.67v-2.74Z"/>
  <path class="st0" d="M185.19,18.97c.96-.97,2.25-1.53,3.69-1.61h7.31v-2.82h-7.39c-1.04,0-2.09.16-3.13.56-.96.4-1.93.97-2.65,1.77-.8.73-1.36,1.69-1.77,2.66-.4.97-.64,2.1-.64,3.14s.24,2.18.64,3.14c.4.97,1.04,1.93,1.77,2.66.72.73,1.69,1.37,2.65,1.77.96.4,2.09.56,3.13.56h7.39v-2.82h-7.39c-1.37,0-2.73-.64-3.7-1.61-.48-.48-.88-1.05-1.12-1.69-.24-.64-.4-1.29-.4-2.01,0-.64.16-1.37.4-2.01.32-.56.72-1.13,1.21-1.69Z"/>
  <path class="st0" d="M219.09,18.97c.96-.97,2.25-1.53,3.7-1.61h7.39v-2.82h-7.39c-1.04,0-2.09.16-3.13.56-.96.4-1.85,1.05-2.65,1.77s-1.36,1.69-1.77,2.66c-.4.97-.64,2.1-.64,3.14s.24,2.18.64,3.14c.4.97,1.04,1.93,1.77,2.66.72.73,1.69,1.37,2.65,1.77.96.4,2.09.56,3.13.56h7.39v-2.82h-7.39c-1.37,0-2.73-.64-3.7-1.61-.48-.48-.88-1.05-1.12-1.69-.24-.64-.4-1.29-.4-2.01,0-.64.16-1.37.4-2.01.32-.56.72-1.13,1.12-1.69Z"/>
  <path class="st0" d="M236.6,18.97c.96-.97,2.25-1.53,3.7-1.61h7.39v-2.82h-7.39c-1.04,0-2.09.16-3.13.56-.96.4-1.93.97-2.65,1.77-.8.73-1.37,1.69-1.77,2.66-.4.97-.64,2.1-.64,3.14s.24,2.18.64,3.14c.4.97,1.04,1.93,1.77,2.66.72.73,1.69,1.37,2.65,1.77.96.4,2.09.56,3.13.56h7.39v-2.82h-7.39c-1.37,0-2.73-.64-3.7-1.61-.48-.48-.88-1.05-1.12-1.69-.24-.64-.4-1.29-.4-2.01,0-.64.16-1.37.4-2.01.32-.56.64-1.13,1.12-1.69Z"/>
  <path class="st0" d="M214.99,14.54h-3.21l-5.46,12.49-5.54-12.49h-3.37l7.31,16.28-2.81,6.37h3.21l9.88-22.65Z"/>
  <path class="st0" d="M176.52,30.82h3.61l-5.46-7.25c.88-.4,1.69-.89,2.41-1.61.72-.73,1.28-1.53,1.69-2.5.4-.97.56-1.93.56-2.98s-.24-2.01-.56-2.98c-.4-.97-.96-1.77-1.69-2.5-.72-.73-1.61-1.29-2.49-1.61-.88-.4-1.93-.56-2.89-.56h-9.64v22h3.05v-6.69h6.43l4.98,6.69ZM165.11,11.64h6.59c1.28.08,2.49.56,3.29,1.45.4.48.8.97,1.04,1.53.24.56.32,1.21.32,1.77,0,.64-.08,1.21-.32,1.77-.24.56-.56,1.13-1.04,1.53-.88.89-2.09,1.45-3.29,1.45h-6.59v-9.51Z"/>
</svg>