<?xml version="1.0" encoding="UTF-8"?>
<svg id="Layer_1" xmlns="http://www.w3.org/2000/svg" version="1.1" viewBox="0 0 305 46">
  <!-- Generator: Adobe Illustrator 29.7.1, SVG Export Plug-In . SVG Version: 2.1.1 Build 8)  -->
  <defs>
    <style>
      .st0 {
        fill: #838f8c;
      }
    </style>
  </defs>
  <path class="st0" d="M161.45,10.83c0,1.96,1.63,3.59,3.64,3.59s3.59-1.58,3.59-3.59-1.58-3.64-3.59-3.64-3.64,1.68-3.64,3.64Z"/>
  <path class="st0" d="M194.06,10.83c0,1.96,1.63,3.59,3.64,3.59s3.59-1.58,3.59-3.59-1.58-3.64-3.59-3.64-3.64,1.68-3.64,3.64Z"/>
  <path class="st0" d="M168.19,16.94h-6.25v19.99h6.25v-19.99Z"/>
  <path class="st0" d="M191.13,8.08h-17.71v28.86h6.25v-10.9h9.64v-5.46h-9.64v-7.04h11.46v-5.46Z"/>
  <path class="st0" d="M200.8,16.94h-6.25v19.99h6.25v-19.99Z"/>
  <path class="st0" d="M125.53,20.58v-3.64h3.63v-3.63h3.63v3.63h-3.63v3.63h3.63v1.15c0,1.33-.11,2.91-.37,4.15-.14.69-.37,1.38-.62,2.04-.16.41-.34.82-.53,1.2l-.08.16c-.03.06-.06.11-.09.16l-.05.1s-.04.08-.07.12c-.03.06-.06.11-.09.16-.43.76-.94,1.49-1.52,2.17l-.07.08h0c-.14.17-.28.34-.44.5-.18.19-.36.37-.55.55-2.33,2.24-5.36,3.64-8.52,3.96-.38.04-1.15.08-1.53.08-.19,0-.49-.01-.78-.03-.28-.01-.56-.03-.75-.05-3.17-.32-6.2-1.72-8.52-3.96l-.07-.07h0c-.16-.16-.32-.31-.47-.48-.18-.19-.34-.38-.51-.58-.58-.68-1.09-1.41-1.52-2.17-.1-.18-.2-.36-.3-.55-.08-.17-.17-.34-.25-.51-.06-.13-.12-.26-.17-.39-.03-.06-.05-.12-.08-.18l-.04-.09-.03-.08-.04-.1c-.26-.66-.48-1.35-.63-2.04-.26-1.24-.37-2.82-.37-4.15v-13.65h7.27v12.73c0,.13,0,.31,0,.48,0,.22,0,.44,0,.56.02.43.03.85.08,1.27.12,1.12.37,2.19.88,3.09.15.26.3.51.48.75,1.09,1.46,2.75,2.55,4.83,2.86.25.03.75.07,1,.07s.75-.03,1-.07c2.07-.31,3.74-1.4,4.83-2.86.11-.15.21-.3.3-.45.06-.1.12-.2.18-.3.51-.9.76-1.96.88-3.09.04-.42.06-.84.07-1.27,0-.15,0-.43.01-.7v-.39s0-.19,0-.19Z"/>
  <path class="st0" d="M129.16,13.3h-2.73v-2.73h2.73v2.73Z"/>
  <path class="st0" d="M130.07,7.85h1.82v1.82h-1.82v-1.82Z"/>
  <path class="st0" d="M156.7,36.93h-6.21v-11.75s0-.41,0-.55h0c0-.19-.01-.37-.03-.55-.05-.48-.16-.94-.38-1.33v-.02s-.02,0-.02,0c-.06-.1-.12-.2-.19-.3-.47-.63-1.18-1.1-2.08-1.23-.04,0-.1-.01-.15-.02h-.07c-.08-.01-.15-.01-.2-.01-.06,0-.16,0-.26.01-.07,0-.13.01-.17.02-.89.13-1.61.6-2.08,1.23-.02.02-.03.05-.05.07-.02.03-.03.05-.05.08-.04.06-.07.12-.11.18-.22.39-.33.85-.38,1.33-.02.18-.03.36-.03.55,0,.13,0,.55,0,.55v11.73h-6.21v-19.99h5.99v1.82s2.13-2.65,6.38-2.47c3.82.17,6.31,3.1,6.31,7.09v13.57Z"/>
</svg>